<svg xmlns="http://www.w3.org/2000/svg" width="39.499" height="33.757" viewBox="0 0 39.499 33.757">
  <g id="Icon_ionic-ios-menu" data-name="Icon ionic-ios-menu" transform="translate(-4.5 -10.125)">
    <path id="Path_7" data-name="Path 7" d="M42.354,14.947H6.146c-.905,0-1.646-1.085-1.646-2.411h0c0-1.326.741-2.411,1.646-2.411H42.354c.905,0,1.646,1.085,1.646,2.411h0C44,13.862,43.259,14.947,42.354,14.947Z" fill="#fff"/>
    <path id="Path_8" data-name="Path 8" d="M42.354,21.7H6.146c-.905,0-1.646-1.085-1.646-2.411h0c0-1.326.741-2.411,1.646-2.411H42.354c.905,0,1.646,1.085,1.646,2.411h0C44,20.612,43.259,21.7,42.354,21.7Z" transform="translate(0 7.717)" fill="#fff"/>
    <path id="Path_9" data-name="Path 9" d="M42.354,28.447H6.146c-.905,0-1.646-1.085-1.646-2.411h0c0-1.326.741-2.411,1.646-2.411H42.354c.905,0,1.646,1.085,1.646,2.411h0C44,27.362,43.259,28.447,42.354,28.447Z" transform="translate(0 15.435)" fill="#fff"/>
  </g>
</svg>
