<svg xmlns="http://www.w3.org/2000/svg" width="21.66" height="21.66" viewBox="0 0 21.66 21.66">
  <path id="Icon_awesome-github-square" data-name="Icon awesome-github-square" d="M19.339,2.25H2.321A2.321,2.321,0,0,0,0,4.571V21.589A2.321,2.321,0,0,0,2.321,23.91H19.339a2.321,2.321,0,0,0,2.321-2.321V4.571A2.321,2.321,0,0,0,19.339,2.25ZM13.407,20.8c-.406.073-.556-.179-.556-.387,0-.261.01-1.6.01-2.674a1.884,1.884,0,0,0-.546-1.484c1.789-.2,3.674-.445,3.674-3.534a2.482,2.482,0,0,0-.827-1.886,3.024,3.024,0,0,0-.082-2.176c-.672-.208-2.21.865-2.21.865a7.606,7.606,0,0,0-4.023,0S7.31,8.453,6.638,8.661a3,3,0,0,0-.082,2.176A2.428,2.428,0,0,0,5.8,12.722c0,3.075,1.8,3.336,3.592,3.534a1.752,1.752,0,0,0-.512,1.078,1.7,1.7,0,0,1-2.335-.672,1.684,1.684,0,0,0-1.233-.827c-.783-.01-.053.493-.053.493.522.242.89,1.17.89,1.17.469,1.436,2.712.952,2.712.952,0,.672.01,1.765.01,1.963s-.145.459-.556.387a8.021,8.021,0,0,1-5.425-7.654,7.673,7.673,0,0,1,7.832-7.808,7.844,7.844,0,0,1,8.035,7.808A7.947,7.947,0,0,1,13.407,20.8ZM8.664,17.847c-.092.019-.179-.019-.189-.082s.053-.135.145-.155.179.029.189.092S8.761,17.828,8.664,17.847ZM8.2,17.8c0,.063-.073.116-.169.116s-.179-.044-.179-.116.073-.116.169-.116S8.2,17.731,8.2,17.8Zm-.662-.053c-.019.063-.116.092-.2.063s-.155-.092-.135-.155.116-.092.2-.073S7.566,17.688,7.542,17.75Zm-.595-.261c-.044.053-.135.044-.208-.029s-.092-.155-.044-.2.135-.044.208.029S6.991,17.451,6.948,17.489Zm-.44-.44c-.044.029-.126,0-.179-.073s-.053-.155,0-.189.135-.01.179.063a.142.142,0,0,1,0,.2Zm-.314-.469c-.044.044-.116.019-.169-.029s-.063-.135-.019-.169.116-.019.169.029S6.237,16.547,6.193,16.58Zm-.324-.358a.091.091,0,0,1-.135.019c-.063-.029-.092-.082-.073-.126A.114.114,0,0,1,5.8,16.1C5.86,16.131,5.889,16.184,5.869,16.223Z" transform="translate(0 -2.25)" fill="#fff"/>
</svg>
