<svg xmlns="http://www.w3.org/2000/svg" width="21.659" height="21.659" viewBox="0 0 21.659 21.659">
  <g id="Group_11" data-name="Group 11" transform="translate(-327 -1300)">
    <rect id="Rectangle_4" data-name="Rectangle 4" width="19" height="19" rx="2" transform="translate(328 1301)" fill="#fff"/>
    <path id="Icon_awesome-linkedin" data-name="Icon awesome-linkedin" d="M20.112,2.25H1.542A1.554,1.554,0,0,0,0,3.812V22.347a1.554,1.554,0,0,0,1.542,1.562h18.57a1.558,1.558,0,0,0,1.547-1.562V3.812A1.558,1.558,0,0,0,20.112,2.25ZM6.546,20.815H3.336V10.478H6.551V20.815ZM4.941,9.067A1.861,1.861,0,1,1,6.8,7.205,1.862,1.862,0,0,1,4.941,9.067ZM18.579,20.815h-3.21V15.787c0-1.2-.024-2.741-1.668-2.741-1.673,0-1.929,1.305-1.929,2.654v5.115H8.562V10.478h3.08V11.89h.044a3.381,3.381,0,0,1,3.041-1.668c3.249,0,3.853,2.142,3.853,4.926Z" transform="translate(327 1297.75)" fill="#2867b2"/>
  </g>
</svg>
